<?xml version="1.0" encoding="utf-8"?>
<!-- Generator: Adobe Illustrator 16.0.3, SVG Export Plug-In . SVG Version: 6.00 Build 0)  -->
<!DOCTYPE svg PUBLIC "-//W3C//DTD SVG 1.1//EN" "http://www.w3.org/Graphics/SVG/1.1/DTD/svg11.dtd">
<svg version="1.1" xmlns="http://www.w3.org/2000/svg" xmlns:xlink="http://www.w3.org/1999/xlink" x="0px" y="0px" width="2880px"
	 height="960px" viewBox="0 0 2880 960" enable-background="new 0 0 2880 960" xml:space="preserve">
<g id="BG" display="none">
	<rect x="-1" y="1" display="inline" width="2880" height="960"/>
</g>
<g id="Raster" display="none">
	<g display="inline">
		<rect x="0.5" y="0.5" fill="none" stroke="#B3B3B3" stroke-miterlimit="10" width="959" height="959"/>
		<line fill="none" stroke="#B3B3B3" stroke-miterlimit="10" x1="0" y1="929.5" x2="960" y2="929.5"/>
		<line fill="none" stroke="#B3B3B3" stroke-miterlimit="10" x1="0" y1="899.5" x2="960" y2="899.5"/>
		<line fill="none" stroke="#B3B3B3" stroke-miterlimit="10" x1="0" y1="868.5" x2="960" y2="868.5"/>
		<line fill="none" stroke="#B3B3B3" stroke-miterlimit="10" x1="0" y1="838.5" x2="960" y2="838.5"/>
		<line fill="none" stroke="#B3B3B3" stroke-miterlimit="10" x1="0" y1="809.5" x2="960" y2="809.5"/>
		<line fill="none" stroke="#B3B3B3" stroke-miterlimit="10" x1="0" y1="780.5" x2="960" y2="780.5"/>
		<line fill="none" stroke="#B3B3B3" stroke-miterlimit="10" x1="0" y1="749.5" x2="960" y2="749.5"/>
		<line fill="none" stroke="#B3B3B3" stroke-miterlimit="10" x1="0" y1="719.5" x2="960" y2="719.5"/>
		<line fill="none" stroke="#B3B3B3" stroke-miterlimit="10" x1="0" y1="690.5" x2="960" y2="690.5"/>
		<line fill="none" stroke="#B3B3B3" stroke-miterlimit="10" x1="0" y1="660.5" x2="960" y2="660.5"/>
		<line fill="none" stroke="#B3B3B3" stroke-miterlimit="10" x1="0" y1="629.5" x2="960" y2="629.5"/>
		<line fill="none" stroke="#B3B3B3" stroke-miterlimit="10" x1="0" y1="599.5" x2="960" y2="599.5"/>
		<line fill="none" stroke="#B3B3B3" stroke-miterlimit="10" x1="0" y1="570.5" x2="960" y2="570.5"/>
		<line fill="none" stroke="#B3B3B3" stroke-miterlimit="10" x1="0" y1="540.5" x2="960" y2="540.5"/>
		<line fill="none" stroke="#B3B3B3" stroke-miterlimit="10" x1="0" y1="509.5" x2="960" y2="509.5"/>
		<line fill="none" stroke="#B3B3B3" stroke-miterlimit="10" x1="0" y1="479.5" x2="960" y2="479.5"/>
		<line fill="none" stroke="#B3B3B3" stroke-miterlimit="10" x1="0" y1="449.5" x2="960" y2="449.5"/>
		<line fill="none" stroke="#B3B3B3" stroke-miterlimit="10" x1="0" y1="420.5" x2="960" y2="420.5"/>
		<line fill="none" stroke="#B3B3B3" stroke-miterlimit="10" x1="0" y1="389.5" x2="960" y2="389.5"/>
		<line fill="none" stroke="#B3B3B3" stroke-miterlimit="10" x1="0" y1="359.5" x2="960" y2="359.5"/>
		<line fill="none" stroke="#B3B3B3" stroke-miterlimit="10" x1="0" y1="329.5" x2="960" y2="329.5"/>
		<line fill="none" stroke="#B3B3B3" stroke-miterlimit="10" x1="0" y1="300.5" x2="960" y2="300.5"/>
		<line fill="none" stroke="#B3B3B3" stroke-miterlimit="10" x1="0" y1="269.5" x2="960" y2="269.5"/>
		<line fill="none" stroke="#B3B3B3" stroke-miterlimit="10" x1="0" y1="239.5" x2="960" y2="239.5"/>
		<line fill="none" stroke="#B3B3B3" stroke-miterlimit="10" x1="0" y1="209.5" x2="960" y2="209.5"/>
		<line fill="none" stroke="#B3B3B3" stroke-miterlimit="10" x1="0" y1="180.5" x2="960" y2="180.5"/>
		<line fill="none" stroke="#B3B3B3" stroke-miterlimit="10" x1="0" y1="150.5" x2="960" y2="150.5"/>
		<line fill="none" stroke="#B3B3B3" stroke-miterlimit="10" x1="0" y1="120.5" x2="960" y2="120.5"/>
		<line fill="none" stroke="#B3B3B3" stroke-miterlimit="10" x1="0" y1="90.5" x2="960" y2="90.5"/>
		<line fill="none" stroke="#B3B3B3" stroke-miterlimit="10" x1="0" y1="61.5" x2="960" y2="61.5"/>
		<line fill="none" stroke="#B3B3B3" stroke-miterlimit="10" x1="0" y1="30.5" x2="960" y2="30.5"/>
		<line fill="none" stroke="#B3B3B3" stroke-miterlimit="10" x1="931.5" y1="1" x2="931.5" y2="960"/>
		<line fill="none" stroke="#B3B3B3" stroke-miterlimit="10" x1="900.5" y1="1" x2="900.5" y2="960"/>
		<line fill="none" stroke="#B3B3B3" stroke-miterlimit="10" x1="870.5" y1="1" x2="870.5" y2="960"/>
		<line fill="none" stroke="#B3B3B3" stroke-miterlimit="10" x1="840.5" y1="1" x2="840.5" y2="960"/>
		<line fill="none" stroke="#B3B3B3" stroke-miterlimit="10" x1="811.5" y1="1" x2="811.5" y2="960"/>
		<line fill="none" stroke="#B3B3B3" stroke-miterlimit="10" x1="780.5" y1="1" x2="780.5" y2="960"/>
		<line fill="none" stroke="#B3B3B3" stroke-miterlimit="10" x1="750.5" y1="1" x2="750.5" y2="960"/>
		<line fill="none" stroke="#B3B3B3" stroke-miterlimit="10" x1="720.5" y1="1" x2="720.5" y2="960"/>
		<line fill="none" stroke="#B3B3B3" stroke-miterlimit="10" x1="691.5" y1="1" x2="691.5" y2="960"/>
		<line fill="none" stroke="#B3B3B3" stroke-miterlimit="10" x1="660.5" y1="1" x2="660.5" y2="960"/>
		<line fill="none" stroke="#B3B3B3" stroke-miterlimit="10" x1="630.5" y1="1" x2="630.5" y2="960"/>
		<line fill="none" stroke="#B3B3B3" stroke-miterlimit="10" x1="600.5" y1="1" x2="600.5" y2="960"/>
		<line fill="none" stroke="#B3B3B3" stroke-miterlimit="10" x1="571.5" y1="1" x2="571.5" y2="960"/>
		<line fill="none" stroke="#B3B3B3" stroke-miterlimit="10" x1="540.5" y1="1" x2="540.5" y2="960"/>
		<line fill="none" stroke="#B3B3B3" stroke-miterlimit="10" x1="510.5" y1="1" x2="510.5" y2="960"/>
		<line fill="none" stroke="#B3B3B3" stroke-miterlimit="10" x1="480.5" y1="1" x2="480.5" y2="960"/>
		<line fill="none" stroke="#B3B3B3" stroke-miterlimit="10" x1="450.5" y1="1" x2="450.5" y2="960"/>
		<line fill="none" stroke="#B3B3B3" stroke-miterlimit="10" x1="420.5" y1="1" x2="420.5" y2="960"/>
		<line fill="none" stroke="#B3B3B3" stroke-miterlimit="10" x1="390.5" y1="1" x2="390.5" y2="960"/>
		<line fill="none" stroke="#B3B3B3" stroke-miterlimit="10" x1="360.5" y1="1" x2="360.5" y2="960"/>
		<line fill="none" stroke="#B3B3B3" stroke-miterlimit="10" x1="330.5" y1="1" x2="330.5" y2="960"/>
		<line fill="none" stroke="#B3B3B3" stroke-miterlimit="10" x1="300.5" y1="1" x2="300.5" y2="960"/>
		<line fill="none" stroke="#B3B3B3" stroke-miterlimit="10" x1="270.5" y1="1" x2="270.5" y2="960"/>
		<line fill="none" stroke="#B3B3B3" stroke-miterlimit="10" x1="240.5" y1="1" x2="240.5" y2="960"/>
		<line fill="none" stroke="#B3B3B3" stroke-miterlimit="10" x1="210.5" y1="1" x2="210.5" y2="960"/>
		<line fill="none" stroke="#B3B3B3" stroke-miterlimit="10" x1="180.5" y1="1" x2="180.5" y2="960"/>
		<line fill="none" stroke="#B3B3B3" stroke-miterlimit="10" x1="150.5" y1="1" x2="150.5" y2="960"/>
		<line fill="none" stroke="#B3B3B3" stroke-miterlimit="10" x1="120.5" y1="1" x2="120.5" y2="960"/>
		<line fill="none" stroke="#B3B3B3" stroke-miterlimit="10" x1="90.5" y1="1" x2="90.5" y2="960"/>
		<line fill="none" stroke="#B3B3B3" stroke-miterlimit="10" x1="60.5" y1="1" x2="60.5" y2="960"/>
		<line fill="none" stroke="#B3B3B3" stroke-miterlimit="10" x1="30.5" y1="1" x2="30.5" y2="960"/>
	</g>
	<g display="inline">
		<rect x="960.5" y="0.5" fill="none" stroke="#B3B3B3" stroke-miterlimit="10" width="959" height="959"/>
		<line fill="none" stroke="#B3B3B3" stroke-miterlimit="10" x1="960" y1="929.5" x2="1920" y2="929.5"/>
		<line fill="none" stroke="#B3B3B3" stroke-miterlimit="10" x1="960" y1="899.5" x2="1920" y2="899.5"/>
		<line fill="none" stroke="#B3B3B3" stroke-miterlimit="10" x1="960" y1="868.5" x2="1920" y2="868.5"/>
		<line fill="none" stroke="#B3B3B3" stroke-miterlimit="10" x1="960" y1="838.5" x2="1920" y2="838.5"/>
		<line fill="none" stroke="#B3B3B3" stroke-miterlimit="10" x1="960" y1="809.5" x2="1920" y2="809.5"/>
		<line fill="none" stroke="#B3B3B3" stroke-miterlimit="10" x1="960" y1="780.5" x2="1920" y2="780.5"/>
		<line fill="none" stroke="#B3B3B3" stroke-miterlimit="10" x1="960" y1="749.5" x2="1920" y2="749.5"/>
		<line fill="none" stroke="#B3B3B3" stroke-miterlimit="10" x1="960" y1="719.5" x2="1920" y2="719.5"/>
		<line fill="none" stroke="#B3B3B3" stroke-miterlimit="10" x1="960" y1="690.5" x2="1920" y2="690.5"/>
		<line fill="none" stroke="#B3B3B3" stroke-miterlimit="10" x1="960" y1="660.5" x2="1920" y2="660.5"/>
		<line fill="none" stroke="#B3B3B3" stroke-miterlimit="10" x1="960" y1="629.5" x2="1920" y2="629.5"/>
		<line fill="none" stroke="#B3B3B3" stroke-miterlimit="10" x1="960" y1="599.5" x2="1920" y2="599.5"/>
		<line fill="none" stroke="#B3B3B3" stroke-miterlimit="10" x1="960" y1="570.5" x2="1920" y2="570.5"/>
		<line fill="none" stroke="#B3B3B3" stroke-miterlimit="10" x1="960" y1="540.5" x2="1920" y2="540.5"/>
		<line fill="none" stroke="#B3B3B3" stroke-miterlimit="10" x1="960" y1="509.5" x2="1920" y2="509.5"/>
		<line fill="none" stroke="#B3B3B3" stroke-miterlimit="10" x1="960" y1="479.5" x2="1920" y2="479.5"/>
		<line fill="none" stroke="#B3B3B3" stroke-miterlimit="10" x1="960" y1="449.5" x2="1920" y2="449.5"/>
		<line fill="none" stroke="#B3B3B3" stroke-miterlimit="10" x1="960" y1="420.5" x2="1920" y2="420.5"/>
		<line fill="none" stroke="#B3B3B3" stroke-miterlimit="10" x1="960" y1="389.5" x2="1920" y2="389.5"/>
		<line fill="none" stroke="#B3B3B3" stroke-miterlimit="10" x1="960" y1="359.5" x2="1920" y2="359.5"/>
		<line fill="none" stroke="#B3B3B3" stroke-miterlimit="10" x1="960" y1="329.5" x2="1920" y2="329.5"/>
		<line fill="none" stroke="#B3B3B3" stroke-miterlimit="10" x1="960" y1="300.5" x2="1920" y2="300.5"/>
		<line fill="none" stroke="#B3B3B3" stroke-miterlimit="10" x1="960" y1="269.5" x2="1920" y2="269.5"/>
		<line fill="none" stroke="#B3B3B3" stroke-miterlimit="10" x1="960" y1="239.5" x2="1920" y2="239.5"/>
		<line fill="none" stroke="#B3B3B3" stroke-miterlimit="10" x1="960" y1="209.5" x2="1920" y2="209.5"/>
		<line fill="none" stroke="#B3B3B3" stroke-miterlimit="10" x1="960" y1="180.5" x2="1920" y2="180.5"/>
		<line fill="none" stroke="#B3B3B3" stroke-miterlimit="10" x1="960" y1="150.5" x2="1920" y2="150.5"/>
		<line fill="none" stroke="#B3B3B3" stroke-miterlimit="10" x1="960" y1="120.5" x2="1920" y2="120.5"/>
		<line fill="none" stroke="#B3B3B3" stroke-miterlimit="10" x1="960" y1="90.5" x2="1920" y2="90.5"/>
		<line fill="none" stroke="#B3B3B3" stroke-miterlimit="10" x1="960" y1="61.5" x2="1920" y2="61.5"/>
		<line fill="none" stroke="#B3B3B3" stroke-miterlimit="10" x1="960" y1="30.5" x2="1920" y2="30.5"/>
		<line fill="none" stroke="#B3B3B3" stroke-miterlimit="10" x1="1891.5" y1="1" x2="1891.5" y2="960"/>
		<line fill="none" stroke="#B3B3B3" stroke-miterlimit="10" x1="1860.5" y1="1" x2="1860.5" y2="960"/>
		<line fill="none" stroke="#B3B3B3" stroke-miterlimit="10" x1="1830.5" y1="1" x2="1830.5" y2="960"/>
		<line fill="none" stroke="#B3B3B3" stroke-miterlimit="10" x1="1800.5" y1="1" x2="1800.5" y2="960"/>
		<line fill="none" stroke="#B3B3B3" stroke-miterlimit="10" x1="1771.5" y1="1" x2="1771.5" y2="960"/>
		<line fill="none" stroke="#B3B3B3" stroke-miterlimit="10" x1="1740.5" y1="1" x2="1740.5" y2="960"/>
		<line fill="none" stroke="#B3B3B3" stroke-miterlimit="10" x1="1710.5" y1="1" x2="1710.5" y2="960"/>
		<line fill="none" stroke="#B3B3B3" stroke-miterlimit="10" x1="1680.5" y1="1" x2="1680.5" y2="960"/>
		<line fill="none" stroke="#B3B3B3" stroke-miterlimit="10" x1="1651.5" y1="1" x2="1651.5" y2="960"/>
		<line fill="none" stroke="#B3B3B3" stroke-miterlimit="10" x1="1620.5" y1="1" x2="1620.5" y2="960"/>
		<line fill="none" stroke="#B3B3B3" stroke-miterlimit="10" x1="1590.5" y1="1" x2="1590.5" y2="960"/>
		<line fill="none" stroke="#B3B3B3" stroke-miterlimit="10" x1="1560.5" y1="1" x2="1560.5" y2="960"/>
		<line fill="none" stroke="#B3B3B3" stroke-miterlimit="10" x1="1531.5" y1="1" x2="1531.5" y2="960"/>
		<line fill="none" stroke="#B3B3B3" stroke-miterlimit="10" x1="1500.5" y1="1" x2="1500.5" y2="960"/>
		<line fill="none" stroke="#B3B3B3" stroke-miterlimit="10" x1="1470.5" y1="1" x2="1470.5" y2="960"/>
		<line fill="none" stroke="#B3B3B3" stroke-miterlimit="10" x1="1440.5" y1="1" x2="1440.5" y2="960"/>
		<line fill="none" stroke="#B3B3B3" stroke-miterlimit="10" x1="1410.5" y1="1" x2="1410.5" y2="960"/>
		<line fill="none" stroke="#B3B3B3" stroke-miterlimit="10" x1="1380.5" y1="1" x2="1380.5" y2="960"/>
		<line fill="none" stroke="#B3B3B3" stroke-miterlimit="10" x1="1350.5" y1="1" x2="1350.5" y2="960"/>
		<line fill="none" stroke="#B3B3B3" stroke-miterlimit="10" x1="1320.5" y1="1" x2="1320.5" y2="960"/>
		<line fill="none" stroke="#B3B3B3" stroke-miterlimit="10" x1="1290.5" y1="1" x2="1290.5" y2="960"/>
		<line fill="none" stroke="#B3B3B3" stroke-miterlimit="10" x1="1260.5" y1="1" x2="1260.5" y2="960"/>
		<line fill="none" stroke="#B3B3B3" stroke-miterlimit="10" x1="1230.5" y1="1" x2="1230.5" y2="960"/>
		<line fill="none" stroke="#B3B3B3" stroke-miterlimit="10" x1="1200.5" y1="1" x2="1200.5" y2="960"/>
		<line fill="none" stroke="#B3B3B3" stroke-miterlimit="10" x1="1170.5" y1="1" x2="1170.5" y2="960"/>
		<line fill="none" stroke="#B3B3B3" stroke-miterlimit="10" x1="1140.5" y1="1" x2="1140.5" y2="960"/>
		<line fill="none" stroke="#B3B3B3" stroke-miterlimit="10" x1="1110.5" y1="1" x2="1110.5" y2="960"/>
		<line fill="none" stroke="#B3B3B3" stroke-miterlimit="10" x1="1080.5" y1="1" x2="1080.5" y2="960"/>
		<line fill="none" stroke="#B3B3B3" stroke-miterlimit="10" x1="1050.5" y1="1" x2="1050.5" y2="960"/>
		<line fill="none" stroke="#B3B3B3" stroke-miterlimit="10" x1="1020.5" y1="1" x2="1020.5" y2="960"/>
		<line fill="none" stroke="#B3B3B3" stroke-miterlimit="10" x1="990.5" y1="1" x2="990.5" y2="960"/>
	</g>
	<g display="inline">
		<rect x="1920.5" y="0.5" fill="none" stroke="#B3B3B3" stroke-miterlimit="10" width="959" height="959"/>
		<line fill="none" stroke="#B3B3B3" stroke-miterlimit="10" x1="1920" y1="929.5" x2="2880" y2="929.5"/>
		<line fill="none" stroke="#B3B3B3" stroke-miterlimit="10" x1="1920" y1="899.5" x2="2880" y2="899.5"/>
		<line fill="none" stroke="#B3B3B3" stroke-miterlimit="10" x1="1920" y1="868.5" x2="2880" y2="868.5"/>
		<line fill="none" stroke="#B3B3B3" stroke-miterlimit="10" x1="1920" y1="838.5" x2="2880" y2="838.5"/>
		<line fill="none" stroke="#B3B3B3" stroke-miterlimit="10" x1="1920" y1="809.5" x2="2880" y2="809.5"/>
		<line fill="none" stroke="#B3B3B3" stroke-miterlimit="10" x1="1920" y1="780.5" x2="2880" y2="780.5"/>
		<line fill="none" stroke="#B3B3B3" stroke-miterlimit="10" x1="1920" y1="749.5" x2="2880" y2="749.5"/>
		<line fill="none" stroke="#B3B3B3" stroke-miterlimit="10" x1="1920" y1="719.5" x2="2880" y2="719.5"/>
		<line fill="none" stroke="#B3B3B3" stroke-miterlimit="10" x1="1920" y1="690.5" x2="2880" y2="690.5"/>
		<line fill="none" stroke="#B3B3B3" stroke-miterlimit="10" x1="1920" y1="660.5" x2="2880" y2="660.5"/>
		<line fill="none" stroke="#B3B3B3" stroke-miterlimit="10" x1="1920" y1="629.5" x2="2880" y2="629.5"/>
		<line fill="none" stroke="#B3B3B3" stroke-miterlimit="10" x1="1920" y1="599.5" x2="2880" y2="599.5"/>
		<line fill="none" stroke="#B3B3B3" stroke-miterlimit="10" x1="1920" y1="570.5" x2="2880" y2="570.5"/>
		<line fill="none" stroke="#B3B3B3" stroke-miterlimit="10" x1="1920" y1="540.5" x2="2880" y2="540.5"/>
		<line fill="none" stroke="#B3B3B3" stroke-miterlimit="10" x1="1920" y1="509.5" x2="2880" y2="509.5"/>
		<line fill="none" stroke="#B3B3B3" stroke-miterlimit="10" x1="1920" y1="479.5" x2="2880" y2="479.5"/>
		<line fill="none" stroke="#B3B3B3" stroke-miterlimit="10" x1="1920" y1="449.5" x2="2880" y2="449.5"/>
		<line fill="none" stroke="#B3B3B3" stroke-miterlimit="10" x1="1920" y1="420.5" x2="2880" y2="420.5"/>
		<line fill="none" stroke="#B3B3B3" stroke-miterlimit="10" x1="1920" y1="389.5" x2="2880" y2="389.5"/>
		<line fill="none" stroke="#B3B3B3" stroke-miterlimit="10" x1="1920" y1="359.5" x2="2880" y2="359.5"/>
		<line fill="none" stroke="#B3B3B3" stroke-miterlimit="10" x1="1920" y1="329.5" x2="2880" y2="329.5"/>
		<line fill="none" stroke="#B3B3B3" stroke-miterlimit="10" x1="1920" y1="300.5" x2="2880" y2="300.5"/>
		<line fill="none" stroke="#B3B3B3" stroke-miterlimit="10" x1="1920" y1="269.5" x2="2880" y2="269.5"/>
		<line fill="none" stroke="#B3B3B3" stroke-miterlimit="10" x1="1920" y1="239.5" x2="2880" y2="239.5"/>
		<line fill="none" stroke="#B3B3B3" stroke-miterlimit="10" x1="1920" y1="209.5" x2="2880" y2="209.5"/>
		<line fill="none" stroke="#B3B3B3" stroke-miterlimit="10" x1="1920" y1="180.5" x2="2880" y2="180.5"/>
		<line fill="none" stroke="#B3B3B3" stroke-miterlimit="10" x1="1920" y1="150.5" x2="2880" y2="150.5"/>
		<line fill="none" stroke="#B3B3B3" stroke-miterlimit="10" x1="1920" y1="120.5" x2="2880" y2="120.5"/>
		<line fill="none" stroke="#B3B3B3" stroke-miterlimit="10" x1="1920" y1="90.5" x2="2880" y2="90.5"/>
		<line fill="none" stroke="#B3B3B3" stroke-miterlimit="10" x1="1920" y1="61.5" x2="2880" y2="61.5"/>
		<line fill="none" stroke="#B3B3B3" stroke-miterlimit="10" x1="1920" y1="30.5" x2="2880" y2="30.5"/>
		<line fill="none" stroke="#B3B3B3" stroke-miterlimit="10" x1="2851.5" y1="1" x2="2851.5" y2="960"/>
		<line fill="none" stroke="#B3B3B3" stroke-miterlimit="10" x1="2820.5" y1="1" x2="2820.5" y2="960"/>
		<line fill="none" stroke="#B3B3B3" stroke-miterlimit="10" x1="2790.5" y1="1" x2="2790.5" y2="960"/>
		<line fill="none" stroke="#B3B3B3" stroke-miterlimit="10" x1="2760.5" y1="1" x2="2760.5" y2="960"/>
		<line fill="none" stroke="#B3B3B3" stroke-miterlimit="10" x1="2731.5" y1="1" x2="2731.5" y2="960"/>
		<line fill="none" stroke="#B3B3B3" stroke-miterlimit="10" x1="2700.5" y1="1" x2="2700.5" y2="960"/>
		<line fill="none" stroke="#B3B3B3" stroke-miterlimit="10" x1="2670.5" y1="1" x2="2670.5" y2="960"/>
		<line fill="none" stroke="#B3B3B3" stroke-miterlimit="10" x1="2640.5" y1="1" x2="2640.5" y2="960"/>
		<line fill="none" stroke="#B3B3B3" stroke-miterlimit="10" x1="2611.5" y1="1" x2="2611.5" y2="960"/>
		<line fill="none" stroke="#B3B3B3" stroke-miterlimit="10" x1="2580.5" y1="1" x2="2580.5" y2="960"/>
		<line fill="none" stroke="#B3B3B3" stroke-miterlimit="10" x1="2550.5" y1="1" x2="2550.5" y2="960"/>
		<line fill="none" stroke="#B3B3B3" stroke-miterlimit="10" x1="2520.5" y1="1" x2="2520.5" y2="960"/>
		<line fill="none" stroke="#B3B3B3" stroke-miterlimit="10" x1="2491.5" y1="1" x2="2491.5" y2="960"/>
		<line fill="none" stroke="#B3B3B3" stroke-miterlimit="10" x1="2460.5" y1="1" x2="2460.5" y2="960"/>
		<line fill="none" stroke="#B3B3B3" stroke-miterlimit="10" x1="2430.5" y1="1" x2="2430.5" y2="960"/>
		<line fill="none" stroke="#B3B3B3" stroke-miterlimit="10" x1="2400.5" y1="1" x2="2400.5" y2="960"/>
		<line fill="none" stroke="#B3B3B3" stroke-miterlimit="10" x1="2370.5" y1="1" x2="2370.5" y2="960"/>
		<line fill="none" stroke="#B3B3B3" stroke-miterlimit="10" x1="2340.5" y1="1" x2="2340.5" y2="960"/>
		<line fill="none" stroke="#B3B3B3" stroke-miterlimit="10" x1="2310.5" y1="1" x2="2310.5" y2="960"/>
		<line fill="none" stroke="#B3B3B3" stroke-miterlimit="10" x1="2280.5" y1="1" x2="2280.5" y2="960"/>
		<line fill="none" stroke="#B3B3B3" stroke-miterlimit="10" x1="2250.5" y1="1" x2="2250.5" y2="960"/>
		<line fill="none" stroke="#B3B3B3" stroke-miterlimit="10" x1="2220.5" y1="1" x2="2220.5" y2="960"/>
		<line fill="none" stroke="#B3B3B3" stroke-miterlimit="10" x1="2190.5" y1="1" x2="2190.5" y2="960"/>
		<line fill="none" stroke="#B3B3B3" stroke-miterlimit="10" x1="2160.5" y1="1" x2="2160.5" y2="960"/>
		<line fill="none" stroke="#B3B3B3" stroke-miterlimit="10" x1="2130.5" y1="1" x2="2130.5" y2="960"/>
		<line fill="none" stroke="#B3B3B3" stroke-miterlimit="10" x1="2100.5" y1="1" x2="2100.5" y2="960"/>
		<line fill="none" stroke="#B3B3B3" stroke-miterlimit="10" x1="2070.5" y1="1" x2="2070.5" y2="960"/>
		<line fill="none" stroke="#B3B3B3" stroke-miterlimit="10" x1="2040.5" y1="1" x2="2040.5" y2="960"/>
		<line fill="none" stroke="#B3B3B3" stroke-miterlimit="10" x1="2010.5" y1="1" x2="2010.5" y2="960"/>
		<line fill="none" stroke="#B3B3B3" stroke-miterlimit="10" x1="1980.5" y1="1" x2="1980.5" y2="960"/>
		<line fill="none" stroke="#B3B3B3" stroke-miterlimit="10" x1="1950.5" y1="1" x2="1950.5" y2="960"/>
	</g>
	<g display="inline">
		<rect x="2962.5" y="-1023.5" fill="none" stroke="#B3B3B3" stroke-miterlimit="10" width="959" height="959"/>
		<line fill="none" stroke="#B3B3B3" stroke-miterlimit="10" x1="2962" y1="-94.5" x2="3922" y2="-94.5"/>
		<line fill="none" stroke="#B3B3B3" stroke-miterlimit="10" x1="2962" y1="-124.5" x2="3922" y2="-124.5"/>
		<line fill="none" stroke="#B3B3B3" stroke-miterlimit="10" x1="2962" y1="-155.5" x2="3922" y2="-155.5"/>
		<line fill="none" stroke="#B3B3B3" stroke-miterlimit="10" x1="2962" y1="-185.5" x2="3922" y2="-185.5"/>
		<line fill="none" stroke="#B3B3B3" stroke-miterlimit="10" x1="2962" y1="-214.5" x2="3922" y2="-214.5"/>
		<line fill="none" stroke="#B3B3B3" stroke-miterlimit="10" x1="2962" y1="-243.5" x2="3922" y2="-243.5"/>
		<line fill="none" stroke="#B3B3B3" stroke-miterlimit="10" x1="2962" y1="-274.5" x2="3922" y2="-274.5"/>
		<line fill="none" stroke="#B3B3B3" stroke-miterlimit="10" x1="2962" y1="-304.5" x2="3922" y2="-304.5"/>
		<line fill="none" stroke="#B3B3B3" stroke-miterlimit="10" x1="2962" y1="-333.5" x2="3922" y2="-333.5"/>
		<line fill="none" stroke="#B3B3B3" stroke-miterlimit="10" x1="2962" y1="-363.5" x2="3922" y2="-363.5"/>
		<line fill="none" stroke="#B3B3B3" stroke-miterlimit="10" x1="2962" y1="-394.5" x2="3922" y2="-394.5"/>
		<line fill="none" stroke="#B3B3B3" stroke-miterlimit="10" x1="2962" y1="-424.5" x2="3922" y2="-424.5"/>
		<line fill="none" stroke="#B3B3B3" stroke-miterlimit="10" x1="2962" y1="-453.5" x2="3922" y2="-453.5"/>
		<line fill="none" stroke="#B3B3B3" stroke-miterlimit="10" x1="2962" y1="-483.5" x2="3922" y2="-483.5"/>
		<line fill="none" stroke="#B3B3B3" stroke-miterlimit="10" x1="2962" y1="-514.5" x2="3922" y2="-514.5"/>
		<line fill="none" stroke="#B3B3B3" stroke-miterlimit="10" x1="2962" y1="-544.5" x2="3922" y2="-544.5"/>
		<line fill="none" stroke="#B3B3B3" stroke-miterlimit="10" x1="2962" y1="-574.5" x2="3922" y2="-574.5"/>
		<line fill="none" stroke="#B3B3B3" stroke-miterlimit="10" x1="2962" y1="-603.5" x2="3922" y2="-603.5"/>
		<line fill="none" stroke="#B3B3B3" stroke-miterlimit="10" x1="2962" y1="-634.5" x2="3922" y2="-634.5"/>
		<line fill="none" stroke="#B3B3B3" stroke-miterlimit="10" x1="2962" y1="-664.5" x2="3922" y2="-664.5"/>
		<line fill="none" stroke="#B3B3B3" stroke-miterlimit="10" x1="2962" y1="-694.5" x2="3922" y2="-694.5"/>
		<line fill="none" stroke="#B3B3B3" stroke-miterlimit="10" x1="2962" y1="-723.5" x2="3922" y2="-723.5"/>
		<line fill="none" stroke="#B3B3B3" stroke-miterlimit="10" x1="2962" y1="-754.5" x2="3922" y2="-754.5"/>
		<line fill="none" stroke="#B3B3B3" stroke-miterlimit="10" x1="2962" y1="-784.5" x2="3922" y2="-784.5"/>
		<line fill="none" stroke="#B3B3B3" stroke-miterlimit="10" x1="2962" y1="-814.5" x2="3922" y2="-814.5"/>
		<line fill="none" stroke="#B3B3B3" stroke-miterlimit="10" x1="2962" y1="-843.5" x2="3922" y2="-843.5"/>
		<line fill="none" stroke="#B3B3B3" stroke-miterlimit="10" x1="2962" y1="-873.5" x2="3922" y2="-873.5"/>
		<line fill="none" stroke="#B3B3B3" stroke-miterlimit="10" x1="2962" y1="-903.5" x2="3922" y2="-903.5"/>
		<line fill="none" stroke="#B3B3B3" stroke-miterlimit="10" x1="2962" y1="-933.5" x2="3922" y2="-933.5"/>
		<line fill="none" stroke="#B3B3B3" stroke-miterlimit="10" x1="2962" y1="-962.5" x2="3922" y2="-962.5"/>
		<line fill="none" stroke="#B3B3B3" stroke-miterlimit="10" x1="2962" y1="-993.5" x2="3922" y2="-993.5"/>
		<line fill="none" stroke="#B3B3B3" stroke-miterlimit="10" x1="3893.5" y1="-1023" x2="3893.5" y2="-64"/>
		<line fill="none" stroke="#B3B3B3" stroke-miterlimit="10" x1="3862.5" y1="-1023" x2="3862.5" y2="-64"/>
		<line fill="none" stroke="#B3B3B3" stroke-miterlimit="10" x1="3832.5" y1="-1023" x2="3832.5" y2="-64"/>
		<line fill="none" stroke="#B3B3B3" stroke-miterlimit="10" x1="3802.5" y1="-1023" x2="3802.5" y2="-64"/>
		<line fill="none" stroke="#B3B3B3" stroke-miterlimit="10" x1="3773.5" y1="-1023" x2="3773.5" y2="-64"/>
		<line fill="none" stroke="#B3B3B3" stroke-miterlimit="10" x1="3742.5" y1="-1023" x2="3742.5" y2="-64"/>
		<line fill="none" stroke="#B3B3B3" stroke-miterlimit="10" x1="3712.5" y1="-1023" x2="3712.5" y2="-64"/>
		<line fill="none" stroke="#B3B3B3" stroke-miterlimit="10" x1="3682.5" y1="-1023" x2="3682.5" y2="-64"/>
		<line fill="none" stroke="#B3B3B3" stroke-miterlimit="10" x1="3653.5" y1="-1023" x2="3653.5" y2="-64"/>
		<line fill="none" stroke="#B3B3B3" stroke-miterlimit="10" x1="3622.5" y1="-1023" x2="3622.5" y2="-64"/>
		<line fill="none" stroke="#B3B3B3" stroke-miterlimit="10" x1="3592.5" y1="-1023" x2="3592.5" y2="-64"/>
		<line fill="none" stroke="#B3B3B3" stroke-miterlimit="10" x1="3562.5" y1="-1023" x2="3562.5" y2="-64"/>
		<line fill="none" stroke="#B3B3B3" stroke-miterlimit="10" x1="3533.5" y1="-1023" x2="3533.5" y2="-64"/>
		<line fill="none" stroke="#B3B3B3" stroke-miterlimit="10" x1="3502.5" y1="-1023" x2="3502.5" y2="-64"/>
		<line fill="none" stroke="#B3B3B3" stroke-miterlimit="10" x1="3472.5" y1="-1023" x2="3472.5" y2="-64"/>
		<line fill="none" stroke="#B3B3B3" stroke-miterlimit="10" x1="3442.5" y1="-1023" x2="3442.5" y2="-64"/>
		<line fill="none" stroke="#B3B3B3" stroke-miterlimit="10" x1="3412.5" y1="-1023" x2="3412.5" y2="-64"/>
		<line fill="none" stroke="#B3B3B3" stroke-miterlimit="10" x1="3382.5" y1="-1023" x2="3382.5" y2="-64"/>
		<line fill="none" stroke="#B3B3B3" stroke-miterlimit="10" x1="3352.5" y1="-1023" x2="3352.5" y2="-64"/>
		<line fill="none" stroke="#B3B3B3" stroke-miterlimit="10" x1="3322.5" y1="-1023" x2="3322.5" y2="-64"/>
		<line fill="none" stroke="#B3B3B3" stroke-miterlimit="10" x1="3292.5" y1="-1023" x2="3292.5" y2="-64"/>
		<line fill="none" stroke="#B3B3B3" stroke-miterlimit="10" x1="3262.5" y1="-1023" x2="3262.5" y2="-64"/>
		<line fill="none" stroke="#B3B3B3" stroke-miterlimit="10" x1="3232.5" y1="-1023" x2="3232.5" y2="-64"/>
		<line fill="none" stroke="#B3B3B3" stroke-miterlimit="10" x1="3202.5" y1="-1023" x2="3202.5" y2="-64"/>
		<line fill="none" stroke="#B3B3B3" stroke-miterlimit="10" x1="3172.5" y1="-1023" x2="3172.5" y2="-64"/>
		<line fill="none" stroke="#B3B3B3" stroke-miterlimit="10" x1="3142.5" y1="-1023" x2="3142.5" y2="-64"/>
		<line fill="none" stroke="#B3B3B3" stroke-miterlimit="10" x1="3112.5" y1="-1023" x2="3112.5" y2="-64"/>
		<line fill="none" stroke="#B3B3B3" stroke-miterlimit="10" x1="3082.5" y1="-1023" x2="3082.5" y2="-64"/>
		<line fill="none" stroke="#B3B3B3" stroke-miterlimit="10" x1="3052.5" y1="-1023" x2="3052.5" y2="-64"/>
		<line fill="none" stroke="#B3B3B3" stroke-miterlimit="10" x1="3022.5" y1="-1023" x2="3022.5" y2="-64"/>
		<line fill="none" stroke="#B3B3B3" stroke-miterlimit="10" x1="2992.5" y1="-1023" x2="2992.5" y2="-64"/>
	</g>
	<line display="inline" fill="#FFFFFF" stroke="#000000" stroke-miterlimit="10" x1="959.5" y1="-20" x2="959.5" y2="984"/>
	<line display="inline" fill="#FFFFFF" stroke="#000000" stroke-miterlimit="10" x1="1919.5" y1="-16" x2="1919.5" y2="988"/>
	<circle fill="none" stroke="#BF0005" stroke-width="2" stroke-miterlimit="10" cx="1439" cy="480" r="449.5"/>
</g>
<g id="Ebene_1">
	<rect x="-1473.5" y="959.5" fill="#FFFFFF" stroke="#000000" stroke-miterlimit="10" width="1260" height="974"/>
	<g>
		<path fill="#00BF84" d="M481,251.129c60.867,0,118.09,23.703,161.129,66.741c43.039,43.039,66.742,100.263,66.742,161.13
			s-23.703,118.091-66.742,161.13C599.09,683.168,541.867,706.871,481,706.871s-118.09-23.703-161.129-66.741
			c-43.039-43.039-66.742-100.263-66.742-161.13s23.703-118.091,66.742-161.13C362.91,274.832,420.133,251.129,481,251.129
			 M481,91.129C266.785,91.129,93.129,264.784,93.129,479S266.785,866.871,481,866.871S868.871,693.216,868.871,479
			S695.215,91.129,481,91.129L481,91.129z"/>
	</g>
	<polygon fill="none" stroke="#0080FF" stroke-width="140" stroke-linejoin="bevel" stroke-miterlimit="10" points="1803.338,184 
		1439.896,813.5 1076.455,184 	"/>
	
		<rect x="3172" y="-814" fill="none" stroke="#78007F" stroke-width="120" stroke-linejoin="bevel" stroke-miterlimit="10" width="540" height="540"/>
	<polyline fill="none" stroke="#78007F" stroke-width="122" stroke-linejoin="bevel" stroke-miterlimit="10" points="3562,-214 
		3774,-214 3774,-427 	"/>
	<polyline fill="none" stroke="#78007F" stroke-width="122" stroke-linejoin="bevel" stroke-miterlimit="10" points="3774,-662 
		3774,-874 3561,-874 	"/>
	<polyline fill="none" stroke="#78007F" stroke-width="122" stroke-linejoin="bevel" stroke-miterlimit="10" points="3324,-875 
		3112,-875 3112,-668 	"/>
	<polygon fill="none" stroke="#78007F" stroke-width="122" stroke-linejoin="bevel" stroke-miterlimit="10" points="3324,-214 
		3263.502,-274.498 3112,-214 3172.503,-365.498 3112,-426 3112,-214 	"/>
	
		<rect x="3212" y="229" fill="none" stroke="#78007F" stroke-width="120" stroke-linejoin="bevel" stroke-miterlimit="10" width="540" height="540"/>
	<polygon fill="none" stroke="#78007F" stroke-width="122" stroke-linejoin="bevel" stroke-miterlimit="10" points="3364,829 
		3302.5,800 3182,800 3182,679.5 3152,617 3152,829 	"/>
	<polygon fill="none" stroke="#78007F" stroke-width="122" stroke-linejoin="bevel" stroke-miterlimit="10" points="3160,315 
		3220.498,254.502 3160,103 3311.498,163.503 3372,103 3160,103 	"/>
	<polygon fill="none" stroke="#78007F" stroke-width="122" stroke-linejoin="bevel" stroke-miterlimit="10" points="3602.999,169 
		3663.497,229.498 3814.999,169 3754.496,320.498 3815,381 3815,169 	"/>
	<polygon fill="none" stroke="#78007F" stroke-width="122" stroke-linejoin="bevel" stroke-miterlimit="10" points="3815,616.999 
		3754.502,677.497 3814.999,828.999 3663.501,768.496 3603,829 3815,829 	"/>
	<g>
		<g>
			<g>
				<circle fill="#FFFFFF" cx="2583.25" cy="-441.25" r="330.25"/>
			</g>
			<g>
				<circle fill="none" stroke="#000000" stroke-miterlimit="10" cx="2583.25" cy="-441.25" r="330.25"/>
			</g>
		</g>
		<g>
			<g>
				<polygon fill="#FFFFFF" points="2583.25,-441.25 2353.5,-771.5 2123,-630 				"/>
			</g>
			<g>
				<polygon fill="none" stroke="#000000" stroke-miterlimit="10" points="2583.25,-441.25 2353.5,-771.5 2123,-630 				"/>
			</g>
		</g>
	</g>
	<g>
		<g>
			<path fill="#FFFFFF" d="M575.872-496.533L647-743l-247.348,67.978C423.274-589.107,490.402-521.218,575.872-496.533z"/>
		</g>
	</g>
	<g>
		<g>
			<path fill="#FFFFFF" d="M357.626-807.264L559-648l-90.523-240.503C424.494-871.877,386.27-843.533,357.626-807.264z"/>
		</g>
	</g>
	<g>
		
			<rect x="82.847" y="-423.01" transform="matrix(0.704 -0.7102 0.7102 0.704 318.7789 14.7971)" fill="#FFFFFF" width="188.586" height="96"/>
		
			<rect x="192.847" y="-452.009" transform="matrix(-0.9618 -0.2736 0.2736 -0.9618 673.8588 -714.0442)" fill="#FFFFFF" width="188.586" height="96"/>
	</g>
	<g>
		<path fill="#00BF84" d="M-535,225.129c60.866,0,118.09,23.703,161.129,66.741c43.039,43.039,66.742,100.263,66.742,161.13
			s-23.703,118.091-66.742,161.13C-416.91,657.168-474.134,680.871-535,680.871s-118.09-23.703-161.129-66.741
			c-43.039-43.039-66.742-100.263-66.742-161.13s23.703-118.091,66.742-161.13C-653.09,248.832-595.866,225.129-535,225.129
			 M-535,65.129c-214.215,0-387.871,173.655-387.871,387.871S-749.215,840.871-535,840.871S-147.129,667.216-147.129,453
			S-320.785,65.129-535,65.129L-535,65.129z"/>
	</g>
	<path fill="none" stroke="#FFFFFF" stroke-width="10" stroke-miterlimit="10" d="M-636.348,650.53
		C-841.837,557.034-922.871,336-809.339,167.554"/>
	<g>
		<path fill="#00BF84" d="M-836,1199.129c60.866,0,118.09,23.703,161.129,66.742c43.039,43.038,66.742,100.262,66.742,161.129
			s-23.703,118.091-66.742,161.129c-43.039,43.039-100.263,66.742-161.129,66.742s-118.09-23.703-161.129-66.742
			c-43.039-43.038-66.742-100.262-66.742-161.129s23.703-118.091,66.742-161.129C-954.09,1222.832-896.866,1199.129-836,1199.129
			 M-836,1039.129c-214.215,0-387.871,173.655-387.871,387.871s173.656,387.871,387.871,387.871S-448.129,1641.216-448.129,1427
			S-621.785,1039.129-836,1039.129L-836,1039.129z"/>
	</g>
	<path fill="none" stroke="#FFFFFF" stroke-width="60" stroke-miterlimit="10" d="M-885.864,1617.477
		c-229.136-72.496-349.982-400.979-162.492-555.472"/>
	<g opacity="0.7">
		<defs>
			<path id="SVGID_1_" opacity="0.7" d="M1500.517,848.5h-121.244l-363.44-629.75l60.622-105.25h726.883l60.622,105.25
				L1500.517,848.5z M1197.699,253.5L1439.896,673l242.198-419.5H1197.699z"/>
		</defs>
		<clipPath id="SVGID_2_">
			<use xlink:href="#SVGID_1_"  overflow="visible"/>
		</clipPath>
		<linearGradient id="SVGID_3_" gradientUnits="userSpaceOnUse" x1="1440.5005" y1="958.5" x2="1440.5005" y2="-0.3347">
			<stop  offset="0" style="stop-color:#000000"/>
			<stop  offset="1" style="stop-color:#FFFFFF"/>
		</linearGradient>
		
			<rect x="960.5" y="-1.5" opacity="0.2" clip-path="url(#SVGID_2_)" fill="url(#SVGID_3_)" stroke="#4182C2" stroke-miterlimit="10" width="960" height="960"/>
		<use xlink:href="#SVGID_1_"  overflow="visible" fill="none" stroke="#4182C2" stroke-miterlimit="10"/>
	</g>
	<g>
		
			<rect x="2131" y="209" fill="none" stroke="#8711CC" stroke-width="120" stroke-linejoin="bevel" stroke-miterlimit="10" width="540" height="540"/>
		<polygon fill="none" stroke="#8711CC" stroke-width="122" stroke-linejoin="bevel" stroke-miterlimit="10" points="2283,809 
			2221.5,780 2101,780 2101,659.5 2071,597 2071,809 		"/>
		<polygon fill="none" stroke="#8711CC" stroke-width="122" stroke-linejoin="bevel" stroke-miterlimit="10" points="2070,363 
			2099,301.5 2099,181 2219.5,181 2282,151 2070,151 		"/>
		<polygon fill="none" stroke="#8711CC" stroke-width="122" stroke-linejoin="bevel" stroke-miterlimit="10" points="2518,151 
			2579.5,180 2700,180 2700,300.5 2730,363 2730,151 		"/>
		<polygon fill="none" stroke="#8711CC" stroke-width="122" stroke-linejoin="bevel" stroke-miterlimit="10" points="2732,597 
			2703,658.5 2703,779 2582.5,779 2520,809 2732,809 		"/>
	</g>
	<g opacity="0.8">
		<defs>
			<path id="SVGID_4_" opacity="0.8" d="M2732,583.34V376.427L2791,363V151l-61-61h-212l-12.988,58h-209.813L2282,90h-212l-61,61
				v212l61,13.66v206.686L2010,597v212l61,61h212l13.437-60h209.909L2520,870h212l61-61V597L2732,583.34z M2192,688V270h418v418
				H2192z"/>
		</defs>
		<clipPath id="SVGID_5_">
			<use xlink:href="#SVGID_4_"  overflow="visible"/>
		</clipPath>
		<linearGradient id="SVGID_6_" gradientUnits="userSpaceOnUse" x1="2400" y1="958" x2="2400" y2="-0.8347">
			<stop  offset="0" style="stop-color:#000000"/>
			<stop  offset="1" style="stop-color:#FFFFFF"/>
		</linearGradient>
		
			<rect x="1920" y="-2" opacity="0.2" clip-path="url(#SVGID_5_)" fill="url(#SVGID_6_)" stroke="#7A276E" stroke-width="140" stroke-linejoin="bevel" stroke-miterlimit="10" width="960" height="960"/>
	</g>
	<g>
		<path fill="#00BF84" d="M491,1301.129c60.867,0,118.09,23.703,161.129,66.742c43.039,43.038,66.742,100.262,66.742,161.129
			s-23.703,118.091-66.742,161.129c-43.039,43.039-100.262,66.742-161.129,66.742s-118.09-23.703-161.129-66.742
			c-43.039-43.038-66.742-100.262-66.742-161.129s23.703-118.091,66.742-161.129C372.91,1324.832,430.133,1301.129,491,1301.129
			 M491,1141.129c-214.215,0-387.871,173.655-387.871,387.871S276.785,1916.871,491,1916.871S878.871,1743.216,878.871,1529
			S705.215,1141.129,491,1141.129L491,1141.129z"/>
	</g>
	<polygon fill="none" stroke="#0078E9" stroke-width="140" stroke-linejoin="bevel" stroke-miterlimit="10" points="1813.338,1234 
		1449.896,1863.5 1086.455,1234 	"/>
	<g opacity="0.5">
		<defs>
			<path id="SVGID_7_" opacity="0.5" d="M1510.517,1899h-121.244l-363.44-629.75l60.622-105.25h726.883l60.622,105.25L1510.517,1899
				z M1207.699,1304l242.197,419.5l242.198-419.5H1207.699z"/>
		</defs>
		<clipPath id="SVGID_8_">
			<use xlink:href="#SVGID_7_"  overflow="visible"/>
		</clipPath>
		<linearGradient id="SVGID_9_" gradientUnits="userSpaceOnUse" x1="1451.0005" y1="2009" x2="1451.0005" y2="1050.1653">
			<stop  offset="0" style="stop-color:#000000"/>
			<stop  offset="1" style="stop-color:#FFFFFF"/>
		</linearGradient>
		<rect x="971" y="1049" opacity="0.2" clip-path="url(#SVGID_8_)" fill="url(#SVGID_9_)" width="960" height="960"/>
	</g>
	<g opacity="0.5">
		<defs>
			<circle id="SVGID_10_" opacity="0.5" cx="491" cy="1529" r="387.871"/>
		</defs>
		<clipPath id="SVGID_11_">
			<use xlink:href="#SVGID_10_"  overflow="visible"/>
		</clipPath>
		<linearGradient id="SVGID_12_" gradientUnits="userSpaceOnUse" x1="491" y1="2010" x2="491" y2="1051.1653">
			<stop  offset="0" style="stop-color:#000000"/>
			<stop  offset="1" style="stop-color:#FFFFFF"/>
		</linearGradient>
		<rect x="11" y="1050" opacity="0.2" clip-path="url(#SVGID_11_)" fill="url(#SVGID_12_)" width="960" height="960"/>
	</g>
	<g>
		
			<rect x="2141" y="1259" fill="none" stroke="#78007F" stroke-width="120" stroke-linejoin="bevel" stroke-miterlimit="10" width="540" height="540"/>
		<polygon fill="none" stroke="#78007F" stroke-width="122" stroke-linejoin="bevel" stroke-miterlimit="10" points="2293,1859 
			2231.5,1830 2111,1830 2111,1709.5 2081,1647 2081,1859 		"/>
		<polygon fill="none" stroke="#78007F" stroke-width="122" stroke-linejoin="bevel" stroke-miterlimit="10" points="2080,1413 
			2109,1351.5 2109,1231 2229.5,1231 2292,1201 2080,1201 		"/>
		<polygon fill="none" stroke="#78007F" stroke-width="122" stroke-linejoin="bevel" stroke-miterlimit="10" points="2528,1201 
			2589.5,1230 2710,1230 2710,1350.5 2740,1413 2740,1201 		"/>
		<polygon fill="none" stroke="#78007F" stroke-width="122" stroke-linejoin="bevel" stroke-miterlimit="10" points="2742,1647 
			2713,1708.5 2713,1829 2592.5,1829 2530,1859 2742,1859 		"/>
	</g>
	<g opacity="0.5">
		<defs>
			<path id="SVGID_13_" opacity="0.5" d="M2742,1634.34v-206.913l59-13.427v-212l-61-61h-212l-12.988,58h-209.813L2292,1141h-212
				l-61,61v212l61,13.66v206.686L2020,1648v212l61,61h212l13.437-60h209.909l13.654,60h212l61-61v-212L2742,1634.34z M2202,1739
				v-418h418v418H2202z"/>
		</defs>
		<clipPath id="SVGID_14_">
			<use xlink:href="#SVGID_13_"  overflow="visible"/>
		</clipPath>
		<linearGradient id="SVGID_15_" gradientUnits="userSpaceOnUse" x1="2410" y1="2009" x2="2410" y2="1050.1653">
			<stop  offset="0" style="stop-color:#000000"/>
			<stop  offset="1" style="stop-color:#FFFFFF"/>
		</linearGradient>
		<rect x="1930" y="1049" opacity="0.2" clip-path="url(#SVGID_14_)" fill="url(#SVGID_15_)" width="960" height="960"/>
	</g>
	<g opacity="0.6">
		<defs>
			<path id="SVGID_16_" opacity="0.6" d="M481,251.129c60.867,0,118.09,23.703,161.129,66.741
				c43.039,43.04,66.742,100.264,66.742,161.13s-23.703,118.09-66.742,161.13C599.09,683.168,541.867,706.871,481,706.871
				c-60.866,0-118.09-23.703-161.129-66.741c-43.04-43.04-66.742-100.263-66.742-161.13s23.702-118.09,66.742-161.13
				C362.91,274.832,420.134,251.129,481,251.129 M481,91.129C266.785,91.129,93.129,264.784,93.129,479S266.785,866.871,481,866.871
				S868.871,693.216,868.871,479S695.215,91.129,481,91.129L481,91.129z"/>
		</defs>
		<clipPath id="SVGID_17_">
			<use xlink:href="#SVGID_16_"  overflow="visible"/>
		</clipPath>
		<linearGradient id="SVGID_18_" gradientUnits="userSpaceOnUse" x1="481" y1="960" x2="481" y2="1.1653">
			<stop  offset="0" style="stop-color:#000000"/>
			<stop  offset="1" style="stop-color:#FFFFFF"/>
		</linearGradient>
		<rect x="1" opacity="0.2" clip-path="url(#SVGID_17_)" fill="url(#SVGID_18_)" width="960" height="960"/>
	</g>
</g>
</svg>
